<svg width="20" height="20" viewBox="0 0 20 20" fill="none" xmlns="http://www.w3.org/2000/svg">
<path fill-rule="evenodd" clip-rule="evenodd" d="M10 19.9999C4.48 19.9999 0 15.5099 0 9.99988C0 4.47988 4.48 -0.00012207 10 -0.00012207C15.51 -0.00012207 20 4.47988 20 9.99988C20 15.5099 15.51 19.9999 10 19.9999ZM14 8.01988C13.7 7.72988 13.23 7.72988 12.94 8.02988L10 10.9799L7.06 8.02988C6.77 7.72988 6.29 7.72988 6 8.01988C5.7 8.31988 5.7 8.78988 6 9.07988L9.47 12.5699C9.61 12.7099 9.8 12.7899 10 12.7899C10.2 12.7899 10.39 12.7099 10.53 12.5699L14 9.07988C14.15 8.93988 14.22 8.74988 14.22 8.55988C14.22 8.35988 14.15 8.16988 14 8.01988Z" fill="#3FB195"/>
</svg>
