<svg width="71" height="70" viewBox="0 0 71 70" fill="none" xmlns="http://www.w3.org/2000/svg">
<rect x="0.25" width="70" height="70" rx="35" fill="#FD975E"/>
<path d="M44.4384 28.608H39.4564L42.1354 16.5289L40.5844 16.2L37.8584 28.608H26.1084C25.8734 28.608 25.6384 28.796 25.6384 29.078C25.6384 29.313 25.8734 29.5479 26.1084 29.5479H26.9544L27.1424 35.893L28.0354 38.995L28.6464 53.377C28.6464 53.612 28.8814 53.8 29.1164 53.8H41.4774C41.7124 53.8 41.9474 53.612 41.9474 53.377L42.5584 38.995L43.4044 35.893L43.6864 29.5479H44.4384C44.6734 29.5479 44.8614 29.313 44.8614 29.078C44.8614 28.796 44.6734 28.608 44.4384 28.608ZM37.6234 29.5479L36.6364 34.201C36.0724 34.154 35.7904 33.966 35.4614 33.825C35.0384 33.637 34.6154 33.402 33.7224 33.402C32.8294 33.402 32.3594 33.637 31.9834 33.825C31.6544 34.013 31.3254 34.201 30.6204 34.201C29.9624 34.201 29.6334 34.013 29.3044 33.825C28.9754 33.684 28.5994 33.496 28.0354 33.4489L27.8944 29.5479H37.6234ZM42.5584 34.154C42.1824 34.107 41.9474 33.966 41.7124 33.825C41.2894 33.637 40.8194 33.402 39.9264 33.402C39.1744 33.402 38.7514 33.59 38.3284 33.778L39.2684 29.5479H42.6994L42.5584 34.154ZM41.6184 38.619L41.0074 52.86H29.5864L28.9754 38.619L28.0824 35.517L28.0354 34.389C28.4114 34.4359 28.6464 34.53 28.8814 34.671C29.3044 34.906 29.7274 35.047 30.6204 35.047C31.5604 35.047 31.9834 34.906 32.3594 34.671C32.7354 34.483 33.0644 34.3419 33.7224 34.3419C34.4274 34.3419 34.7094 34.483 35.0854 34.671C35.5084 34.906 35.9314 35.047 36.8714 35.047C37.7174 35.047 38.1874 34.906 38.6104 34.671C38.9394 34.483 39.2684 34.3419 39.9264 34.3419C40.5844 34.3419 40.9134 34.483 41.2894 34.671C41.6184 34.859 41.9474 35 42.5114 35.047V35.517L41.6184 38.619ZM31.6074 44.4C32.3594 44.4 32.9704 43.789 32.9704 43.037C32.9704 42.285 32.3594 41.721 31.6074 41.721C30.9024 41.721 30.2444 42.285 30.2444 43.037C30.2444 43.789 30.9024 44.4 31.6074 44.4ZM38.7514 42.238C37.9524 42.238 37.3884 42.802 37.3884 43.554C37.3884 44.306 37.9524 44.964 38.7514 44.964C39.5034 44.964 40.0674 44.306 40.0674 43.554C40.0674 42.802 39.5034 42.238 38.7514 42.238ZM34.9444 46.609C35.7434 46.609 36.3074 45.998 36.3074 45.246C36.3074 44.588 35.7434 43.93 34.9444 43.93C34.2394 43.93 33.6284 44.588 33.6284 45.246C33.6284 45.998 34.2394 46.609 34.9444 46.609ZM31.5134 48.301C32.2184 48.301 32.8764 47.69 32.8764 46.985C32.8764 46.186 32.2184 45.575 31.5134 45.575C30.7614 45.575 30.1504 46.186 30.1504 46.985C30.1504 47.69 30.7614 48.301 31.5134 48.301ZM38.4694 48.489C39.2684 48.489 39.8794 47.878 39.8794 47.126C39.8794 46.374 39.2684 45.763 38.4694 45.763C37.7644 45.763 37.1534 46.374 37.1534 47.126C37.1534 47.878 37.7644 48.489 38.4694 48.489ZM35.1324 47.737C34.4274 47.737 33.8164 48.301 33.8164 49.053C33.8164 49.805 34.4274 50.3689 35.1324 50.3689C35.8844 50.3689 36.4954 49.805 36.4954 49.053C36.4954 48.301 35.8844 47.737 35.1324 47.737ZM31.8894 49.476C31.1844 49.476 30.5264 50.1339 30.5264 50.839C30.5264 51.591 31.1844 52.202 31.8894 52.202C32.6414 52.202 33.2524 51.591 33.2524 50.839C33.2524 50.1339 32.6414 49.476 31.8894 49.476ZM38.7514 49.523C37.9524 49.523 37.3884 50.1339 37.3884 50.839C37.3884 51.591 37.9524 52.202 38.7514 52.202C39.5034 52.202 40.0674 51.591 40.0674 50.839C40.0674 50.1339 39.5034 49.523 38.7514 49.523Z" fill="#FAFAFA"/>
</svg>
