<svg width="71" height="70" viewBox="0 0 71 70" fill="none" xmlns="http://www.w3.org/2000/svg">
<rect x="0.75" width="70" height="70" rx="35" fill="#3FB195"/>
<path d="M24.364 16L18.677 22.392H30.004L24.364 16ZM20.651 28.784H28.03L29.393 23.332H27.325L26.714 26.152C26.526 26.857 26.15 26.857 25.586 26.857H22.954C22.437 26.857 22.014 26.857 21.873 26.152C21.685 25.447 21.215 23.332 21.215 23.332H19.288L20.651 28.784ZM54.397 44.435H52.94V43.495H52V37.573H32.025V43.495H31.085V44.435H27.607V29.724H21.074V44.435H18.395L16.75 53.6H33.247L34.422 44.905H38.652L39.592 53.6H55.76L54.397 44.435ZM25.21 33.625H23.471V31.604H25.21V33.625ZM34.422 31.839V32.779H49.368V31.839H34.422ZM52.987 35.787L50.167 33.719H33.717L31.085 35.787V36.633H52.987V35.787ZM25.21 38.278H23.471V36.257H25.21V38.278ZM37.054 43.495H33.623V40.252C33.623 39.594 34.375 39.077 35.315 39.077C36.255 39.077 37.054 39.594 37.054 40.252V43.495ZM41.566 43.495H38.182V40.252C38.182 39.594 38.934 39.077 39.874 39.077C40.814 39.077 41.566 39.594 41.566 40.252V43.495ZM46.125 43.495H42.741V40.252C42.741 39.594 43.493 39.077 44.433 39.077C45.373 39.077 46.125 39.594 46.125 40.252V43.495ZM50.496 43.495H47.112V40.252C47.112 39.594 47.864 39.077 48.804 39.077C49.744 39.077 50.496 39.594 50.496 40.252V43.495ZM25.21 44.435H23.471V41.38H25.21V44.435Z" fill="white"/>
</svg>
