<svg width="71" height="70" viewBox="0 0 71 70" fill="none" xmlns="http://www.w3.org/2000/svg">
<rect x="0.75" width="70" height="70" rx="35" fill="#C17B53"/>
<path d="M14.271 23.2031H57.229C57.323 23.2031 57.37 23.1561 57.37 23.1091V22.3571C57.37 22.3101 57.323 22.2631 57.229 22.2631C55.725 22.2631 54.221 20.2891 54.221 18.5031C54.221 18.4561 54.174 18.4091 54.08 18.4091H17.42C17.326 18.4091 17.279 18.4561 17.279 18.5501C17.279 20.3361 15.775 22.2631 14.271 22.2631C14.177 22.2631 14.13 22.3101 14.13 22.4041V23.0621C14.13 23.1561 14.177 23.2031 14.271 23.2031ZM59.391 26.4461C57.699 26.4461 56.336 25.7881 56.336 24.2841C56.336 24.1901 56.289 24.1431 56.195 24.1431H15.117C15.117 25.7411 13.801 26.4461 12.109 26.4461C12.015 26.4461 11.968 26.5401 11.968 26.6341V27.2451C11.968 27.2921 12.015 27.3861 12.109 27.3861H59.391C59.485 27.3861 59.532 27.2921 59.532 27.2451V26.6341C59.532 26.5401 59.485 26.4461 59.391 26.4461ZM55.772 28.2791H15.681C15.634 28.2791 15.587 28.3731 15.587 28.4201V49.5231C15.587 49.5701 15.634 49.6641 15.681 49.6641H23.859V48.7241H25.504V47.0791H22.12V44.4941C22.12 44.0241 22.355 43.6481 22.731 43.4131V40.5461H22.12V37.9611C22.12 37.2561 22.731 36.6451 23.483 36.6451C24.282 36.6451 24.893 37.2561 24.893 37.9611V39.9821C25.598 39.8411 26.068 39.4651 26.068 38.7601V38.4311H26.632V37.9611C26.632 37.2091 27.29 36.6451 28.042 36.6451C28.794 36.6451 29.405 37.2091 29.405 37.9611V38.4311H31.52V36.9741H39.886V38.4311H42.095V37.9611C42.095 37.2091 42.706 36.6451 43.458 36.6451C44.21 36.6451 44.868 37.2091 44.868 37.9611V38.4311H45.432V38.7131C45.432 39.4181 45.902 39.8881 46.607 40.0291V37.9611C46.607 37.2561 47.218 36.6451 48.017 36.6451C48.769 36.6451 49.38 37.2561 49.38 37.9611V40.5461H48.487V43.2721C49.004 43.4601 49.38 43.9301 49.38 44.4941V47.0791H45.996V48.7241H47.547V49.6641H55.772C55.819 49.6641 55.866 49.6171 55.913 49.6171V28.4201C55.913 28.3731 55.866 28.2791 55.772 28.2791ZM20.334 34.1071H17.561V31.5221C17.561 30.8171 18.219 30.2061 18.971 30.2061C19.723 30.2061 20.334 30.8171 20.334 31.5221V34.1071ZM24.893 34.1071H22.12V31.5221C22.12 30.8171 22.731 30.2061 23.483 30.2061C24.282 30.2061 24.893 30.8171 24.893 31.5221V34.1071ZM29.405 34.1071H26.632V31.5221C26.632 30.8171 27.29 30.2061 28.042 30.2061C28.794 30.2061 29.405 30.8171 29.405 31.5221V34.1071ZM44.868 34.1071H42.095V31.5221C42.095 30.8171 42.706 30.2061 43.458 30.2061C44.21 30.2061 44.868 30.8171 44.868 31.5221V34.1071ZM49.38 34.1071H46.607V31.5221C46.607 30.8171 47.218 30.2061 48.017 30.2061C48.769 30.2061 49.38 30.8171 49.38 31.5221V34.1071ZM53.892 34.1071H51.119V31.5221C51.119 30.8171 51.777 30.2061 52.529 30.2061C53.281 30.2061 53.892 30.8171 53.892 31.5221V34.1071ZM39.886 34.1071H31.52V30.4881H39.886V34.1071ZM20.334 40.5461H17.561V37.9611C17.561 37.2561 18.219 36.6451 18.971 36.6451C19.723 36.6451 20.334 37.2561 20.334 37.9611V40.5461ZM53.892 40.5461H51.119V37.9611C51.119 37.2561 51.777 36.6451 52.529 36.6451C53.281 36.6451 53.892 37.2561 53.892 37.9611V40.5461ZM46.607 50.6041V49.6641H45.056V44.6821H47.782V43.7421C46.654 43.7421 45.62 43.2251 45.197 42.0971H47.782V41.1571C46.325 41.1571 44.633 40.5931 44.633 39.0891H26.867C26.867 40.5931 25.128 41.1571 23.671 41.1571V42.0971H26.256C25.88 43.2251 24.846 43.7421 23.671 43.7421V44.6821H26.444V49.6641H24.799V50.6041H23.53V51.5911H47.876V50.6041H46.607ZM20.334 47.0791H17.561V44.4941C17.561 43.7891 18.219 43.1781 18.971 43.1781C19.723 43.1781 20.334 43.7891 20.334 44.4941V47.0791ZM53.892 47.0791H51.119V44.4941C51.119 43.7891 51.777 43.1781 52.529 43.1781C53.281 43.1781 53.892 43.7891 53.892 44.4941V47.0791ZM27.901 47.5961C27.901 46.3741 28.841 45.4341 30.016 45.4341C31.191 45.4341 32.131 46.3741 32.131 47.5961V49.6641H27.901V47.5961ZM35.75 45.4341C36.925 45.4341 37.865 46.3741 37.865 47.5961V49.6641H33.635V47.5961C33.635 46.3741 34.575 45.4341 35.75 45.4341ZM41.484 45.4341C42.659 45.4341 43.599 46.3741 43.599 47.5961V49.6641H39.369V47.5961C39.369 46.3741 40.309 45.4341 41.484 45.4341Z" fill="white"/>
</svg>
