<svg width="71" height="70" viewBox="0 0 71 70" fill="none" xmlns="http://www.w3.org/2000/svg">
<rect x="0.25" width="70" height="70" rx="35" fill="#C499FF"/>
<path d="M62.5336 39.4977C61.4996 34.7977 57.2696 31.2727 52.2406 31.2727C49.7026 31.2727 47.3526 32.1657 45.5196 33.6697L43.4516 31.4607L44.8146 27.2307H46.1776C46.7886 27.2307 47.8696 26.6667 47.8696 25.7737C47.8696 24.8807 47.0236 24.1757 45.8486 24.1757C44.6736 24.1757 42.6526 25.3037 40.7256 25.3037C38.8456 25.3037 38.4696 25.9147 38.4696 26.4317C38.4696 26.9017 38.7986 27.2307 39.4096 27.2307H43.3106L39.2686 39.9677H38.8926C37.4826 39.9677 36.2606 40.9547 35.8376 42.2237C35.5086 41.9417 35.0386 41.5187 34.5686 40.7667C33.6286 39.4977 32.7356 37.8057 31.8896 36.1607C31.0906 34.7507 30.3856 33.3877 29.6806 32.3067C28.5526 30.5677 27.1896 29.3927 25.5446 28.7347C24.6516 28.4057 23.8056 28.2647 23.1476 28.2177L24.5576 22.2957C24.6046 22.1077 24.6046 21.9197 24.5106 21.7787L23.1946 19.6637H27.2366C27.6596 19.6637 27.9416 19.3347 27.9416 18.9587C27.9416 18.5827 27.6596 18.2537 27.2366 18.2537H22.1136C21.9256 18.2067 21.7376 18.2537 21.5966 18.3477C21.2676 18.5357 21.1736 18.9587 21.3616 19.3347L23.1476 22.2487L21.5966 28.5937C21.5496 28.6877 21.5496 28.7347 21.5496 28.8287L21.2206 30.1917C20.2806 29.9567 19.3406 29.8627 18.3536 29.8627C17.9776 29.8627 17.6486 30.1447 17.6486 30.5677C17.6486 30.9437 17.9776 31.2727 18.3536 31.2727C19.1996 31.2727 20.0456 31.3667 20.8446 31.5547L20.7036 32.2127C19.8106 31.9777 18.9176 31.8367 17.9306 31.8367C12.4316 31.8367 7.96655 36.3017 7.96655 41.8007C7.96655 47.2997 12.4316 51.7647 17.9306 51.7647C23.4296 51.7647 27.8946 47.2997 27.8946 41.8007C27.8946 37.7587 25.4976 34.2807 22.0196 32.7297L22.2076 32.0247C25.8266 33.5287 28.4116 37.1007 28.4116 41.2837C28.4116 41.6597 28.6936 41.9887 29.1166 41.9887C29.4926 41.9887 29.8216 41.6597 29.8216 41.2837C29.8216 38.2287 28.5996 35.3617 26.4376 33.1997C25.3096 32.0717 23.9936 31.2257 22.5366 30.6147L22.8186 29.5807C23.4766 29.6277 24.2286 29.7217 25.0276 30.0507C26.3906 30.6147 27.5186 31.6017 28.5056 33.0587C29.1636 34.0927 29.8686 35.4557 30.6206 36.8187C32.3126 39.9677 33.9106 42.9757 35.7436 43.8217C35.8376 44.2447 35.9786 44.6207 36.2136 44.9497L33.6756 47.4877H32.3126C31.8896 47.4877 31.6076 47.8167 31.6076 48.1927C31.6076 48.6157 31.8896 48.8977 32.3126 48.8977H36.1666C36.5896 48.8977 36.8716 48.6157 36.8716 48.1927C36.8716 47.8167 36.5896 47.4877 36.1666 47.4877H35.6496L37.2006 45.9837C37.7176 46.3127 38.2816 46.5007 38.9396 46.5007C40.1146 46.5007 41.1486 45.8897 41.7126 44.9497L42.7466 44.8087C44.0156 48.8507 47.7756 51.7647 52.2406 51.7647C57.7396 51.7647 62.2046 47.2997 62.2046 41.8007C62.2046 41.0487 62.1576 40.3437 61.9696 39.6387C62.2516 39.5917 62.4396 39.5447 62.5336 39.4977ZM15.3456 27.6067C15.4866 28.3117 16.1446 28.9227 16.8966 28.9227H19.3876C20.0926 28.9227 20.8446 28.3587 20.9856 27.6067L22.0196 23.1417C22.1606 22.4367 21.7376 21.8727 20.9856 21.8727H15.9096C15.1576 21.8727 14.6406 22.4367 14.7346 23.1887L15.3456 27.6067ZM42.9816 32.9647L44.5326 34.6097C43.2636 35.9727 42.3706 37.6177 41.9476 39.4037C42.0886 39.5917 42.2296 39.7327 42.4646 39.8737C42.4646 39.9207 42.4646 39.9207 42.4176 39.9677H40.7256L42.9816 32.9647ZM17.4606 39.5917L17.2256 39.6857L14.3116 34.5627C15.2516 34.0927 16.3326 33.8107 17.4606 33.7167V39.5917ZM19.8106 35.8787L18.4006 39.1687V33.7167C19.0586 33.7637 19.6696 33.8577 20.2806 34.0457L19.8106 35.8787ZM13.4656 35.0327L16.4266 40.1557L16.2856 40.2967L11.1626 37.3827C11.7736 36.4427 12.5726 35.6437 13.4656 35.0327ZM24.6986 37.3827L19.6226 40.2967L19.4816 40.2027L19.7636 39.5917L22.3956 35.0327C23.2886 35.6437 24.0876 36.4427 24.6986 37.3827ZM53.8386 40.2497L56.0476 36.4427H56.1886C57.2696 36.4427 58.2096 36.9597 58.9146 37.6647L54.0266 40.4377C53.9796 40.3907 53.9326 40.2967 53.8386 40.2497ZM53.0396 39.7327L52.7106 39.5917V39.4977C52.8516 39.3097 52.9926 39.1217 53.0866 38.9337C53.4626 38.3227 53.9326 37.4767 54.6376 36.9597L53.0396 39.7327ZM10.6926 38.1817L15.8156 41.0957C15.7686 41.1897 15.7686 41.2837 15.7216 41.3307H9.84655C9.94055 40.2027 10.2226 39.1217 10.6926 38.1817ZM26.0146 41.3307H20.1396C20.0926 41.2837 20.0926 41.1897 20.0926 41.0957L25.1686 38.1817C25.6386 39.1217 25.9676 40.2027 26.0146 41.3307ZM54.4966 41.5657C54.4496 41.4717 54.4496 41.3777 54.4496 41.3307L59.4786 38.4167C59.5726 38.5577 59.6666 38.6987 59.7136 38.8397C59.8076 39.0277 59.8546 39.1687 59.9486 39.2627C60.1836 39.9677 60.3246 40.7667 60.3246 41.5657H54.4966ZM9.84655 42.2707H15.7216L15.8156 42.5057L10.6926 45.4197C10.2226 44.4797 9.94055 43.3987 9.84655 42.2707ZM25.1686 45.4197L20.0926 42.5057C20.0926 42.4117 20.0926 42.3647 20.1396 42.2707H26.0146C25.9676 43.3987 25.6386 44.4797 25.1686 45.4197ZM59.3846 45.6077L54.3086 42.6937C54.3556 42.5997 54.3556 42.5527 54.4026 42.5057H60.3246C60.2306 43.6337 59.9016 44.6677 59.3846 45.6077ZM11.1626 46.2657L16.2856 43.3047L16.4266 43.4927L13.4656 48.5687C12.5726 47.9577 11.7736 47.1587 11.1626 46.2657ZM22.3956 48.5687L19.4346 43.4927C19.4816 43.4457 19.5286 43.3517 19.6226 43.3047L24.6986 46.2657C24.0876 47.1587 23.2886 47.9577 22.3956 48.5687ZM56.6116 48.6157L53.6506 43.5397L53.7916 43.4457L58.9146 46.4067C58.3036 47.2997 57.5046 48.0517 56.6116 48.6157ZM45.6136 46.4067L50.1256 43.8217L50.7366 43.7277L47.9166 48.6157C46.9766 48.0517 46.2246 47.2997 45.6136 46.4067ZM17.4606 44.0097V49.8847C16.3326 49.8377 15.2516 49.5087 14.3116 49.0387L17.2256 43.9627C17.3196 43.9627 17.3666 44.0097 17.4606 44.0097ZM18.4006 44.0097C18.4946 44.0097 18.5416 43.9627 18.6356 43.9627L21.5496 49.0387C20.6096 49.5087 19.5286 49.8377 18.4006 49.8847V44.0097ZM51.7706 44.0097V49.8847C50.6896 49.8377 49.6556 49.5557 48.7156 49.0857L51.6766 43.9627C51.7236 44.0097 51.7706 44.0097 51.7706 44.0097ZM52.7106 44.0097C52.7576 44.0097 52.8046 43.9627 52.8516 43.9627L55.7656 49.0857C54.8726 49.5557 53.8386 49.8377 52.7106 49.8847V44.0097ZM47.6816 44.1507L45.0966 45.6077C44.9086 45.2787 44.7676 44.9027 44.6266 44.5267L47.6816 44.1507Z" fill="white"/>
</svg>
