<svg width="71" height="70" viewBox="0 0 71 70" fill="none" xmlns="http://www.w3.org/2000/svg">
<rect x="0.25" width="70" height="70" rx="35" fill="#64C5E3"/>
<path d="M47.2167 28.3025C46.4647 27.0335 43.9267 23.8375 43.0337 22.8035C42.6107 22.1925 41.6707 21.4875 40.9187 21.3465C38.0517 20.7355 37.9107 20.6415 36.8767 20.6415C35.0907 20.6415 33.3987 21.1585 33.0697 21.2055L27.2887 22.6155C26.5367 22.8035 25.6437 23.4615 25.4087 24.0725L22.9647 28.8665C22.6827 29.4775 22.5887 30.6995 22.8707 31.4045L28.8867 46.8675C29.3567 48.1365 30.2967 49.3585 34.8087 49.3585C39.3207 49.3585 42.9397 48.1835 43.3627 46.8205L47.7337 30.8405C47.8747 30.0885 47.8277 29.2425 47.2167 28.3025ZM35.1377 48.4185C32.8817 48.4185 30.5787 47.8075 30.5787 46.9615C30.5787 46.3505 33.5867 44.9405 37.2057 44.9405C40.2137 44.9405 41.9997 46.1155 41.9997 46.5385C41.9997 47.3375 38.5687 48.4185 35.1377 48.4185Z" fill="white"/>
</svg>
