<svg width="71" height="70" viewBox="0 0 71 70" fill="none" xmlns="http://www.w3.org/2000/svg">
<rect x="0.75" width="70" height="70" rx="35" fill="#FF9999"/>
<path d="M20.5924 29.783L20.7804 30.488C20.7804 30.488 22.7074 31.287 25.3394 31.287H46.1134C48.6984 31.287 50.6254 30.488 50.6254 30.488L50.8604 29.783C46.7714 30.488 45.7374 26.023 45.6904 25.882L46.5834 23.25H45.6904C44.7504 23.72 42.6824 25.647 35.7264 25.647C28.7704 25.647 26.7024 23.72 25.7624 23.25H24.8224L25.7154 25.882C25.7154 26.023 24.6814 30.488 20.5924 29.783ZM35.7264 25.13C36.1494 25.13 36.5254 24.754 36.5254 24.284C36.5254 23.861 36.1494 23.485 35.7264 23.485C35.2564 23.485 34.8804 23.861 34.8804 24.284C34.8804 24.754 35.2564 25.13 35.7264 25.13ZM56.1244 31.146C52.9754 31.616 52.8344 28.843 52.8344 28.514L53.1634 26.775H52.2234C51.6124 27.574 52.1294 27.856 47.8054 27.997C48.3694 28.608 49.1214 28.89 50.0614 28.89C50.7664 28.89 51.3774 28.702 51.6594 28.984C51.8004 29.125 51.9414 29.595 51.6124 30.817C51.5654 31.005 51.4714 31.099 51.2834 31.193C51.1894 31.24 49.1214 32.039 47.1474 32.18V33.214H53.7744C55.0904 33.214 56.1244 32.086 56.1244 32.086V31.146ZM15.3754 31.193V32.133C15.3754 32.133 16.4094 33.261 17.7254 33.261H24.3524V32.227C22.3784 32.086 20.3104 31.287 20.2164 31.24C20.0284 31.146 19.9344 31.052 19.8874 30.864C19.5584 29.642 19.6994 29.172 19.8404 29.031C20.1224 28.749 20.7334 28.937 21.4384 28.937C22.3784 28.937 23.1304 28.655 23.6944 28.044C19.3704 27.903 19.8874 27.621 19.2764 26.822H18.3364L18.6654 28.561C18.6654 28.89 18.5244 31.663 15.3754 31.193ZM54.7144 34.906H63.1744V33.966C61.5764 32.838 59.7904 30.629 59.7904 30.629H56.7354C56.8294 30.676 57.0644 30.958 57.0644 31.522V32.086C57.0644 32.321 57.0174 32.603 56.8764 32.744C56.6884 32.932 55.9834 33.731 54.7144 33.966V34.906ZM16.7854 34.953V34.013C15.5164 33.778 14.8114 32.979 14.6234 32.791C14.4824 32.65 14.4354 32.368 14.4354 32.133V31.569C14.4354 31.005 14.6704 30.723 14.7644 30.676H11.7094C11.7094 30.676 9.92344 32.885 8.32544 34.013V34.953H16.7854ZM46.1134 43.93V32.227H25.2924V43.93H27.2664V35.376H30.3214V43.93H33.7054V35.376H37.7004V43.93H41.1314V35.376H44.1864V43.93H46.1134ZM38.8754 34.436H32.5774V33.167H38.8754V34.436ZM24.3524 43.93V34.201H17.7254V43.93H19.6524V35.846H21.9084V43.93H24.3524ZM53.6804 43.93V34.201H47.0534V43.93H49.5914V35.846H51.7534V43.93H53.6804ZM16.7854 43.93V35.893H10.2994V43.93H16.7854ZM54.6204 43.93H61.1064V35.893H54.6204V43.93ZM10.2994 44.87V46.75H61.1064V44.87H10.2994Z" fill="white"/>
</svg>
