<svg width="71" height="70" viewBox="0 0 71 70" fill="none" xmlns="http://www.w3.org/2000/svg">
<rect x="0.75" width="70" height="70" rx="35" fill="#81A4FF"/>
<path d="M35.0679 51.3326C46.2539 51.3326 42.8699 48.3716 41.9769 46.5386C41.5069 45.5046 41.0839 44.3766 40.8019 43.2486C40.6139 42.4496 40.4259 41.6506 40.5199 40.8516C40.7079 38.9246 41.6479 36.2456 42.9169 35.5876C43.2459 35.3996 43.7629 35.3996 44.0449 35.2116C44.7029 34.7886 44.4209 33.7546 44.7969 33.1436C44.8909 32.9556 44.5149 31.8276 45.0789 31.0286C45.4079 30.6526 45.2669 30.0416 44.7969 29.7596C44.4209 29.4306 44.3269 28.8666 44.0449 28.4436C43.4809 27.6916 43.3869 26.8456 43.1049 26.0466C43.0109 25.5766 42.9169 25.1066 42.5879 24.8246C42.3999 24.6836 42.0709 24.5426 41.8359 24.4486C41.0839 24.1196 39.9559 23.7436 39.8619 22.8036C39.8619 22.7096 39.6269 22.5216 39.5329 22.4746C39.3449 22.3806 37.9819 22.3806 37.7939 22.4746C37.4649 22.1456 35.9139 22.1456 35.8669 21.4876C35.8669 21.1586 35.4439 20.9236 35.2559 20.7826C34.3629 20.3126 33.5169 20.8296 33.6109 19.8896C33.7049 19.4666 33.7049 19.2786 33.4699 18.9496C33.0469 18.4326 32.6239 18.7146 32.3419 19.0906C31.9189 19.7486 31.4489 20.3596 31.0729 21.0176C30.4619 22.0516 29.9919 22.9916 30.0389 24.1666C30.0389 24.9656 29.9919 25.6706 30.8379 26.0936C31.3079 26.3756 31.6839 26.7516 31.6369 27.4566C31.6369 27.5976 31.7309 27.6916 31.8249 27.8326C33.1409 29.3836 32.6709 29.4776 34.0339 30.3706C34.3629 30.5586 34.8329 30.6526 35.0209 31.0286C35.3499 31.5926 35.3499 32.2036 35.7729 32.7206C36.0079 33.0026 36.0549 33.3316 36.2899 33.6136C36.5719 33.8486 36.8539 34.2246 36.9009 34.6476C36.9479 34.9296 36.7599 35.2116 36.7599 35.4936C36.7599 35.5876 36.8539 35.7756 36.8539 35.8226C36.8539 35.9636 36.7129 36.0576 36.7129 36.1516C36.7129 36.4806 36.9009 36.5276 36.9009 37.0446C36.9009 37.3266 36.8539 37.5616 36.8539 37.7496C36.8069 38.1256 36.1489 39.7706 34.9269 41.3216C33.6109 43.0606 33.2349 43.4366 32.5769 44.2356C31.7309 45.2226 30.5559 45.5516 29.4279 46.0686C26.9369 47.8076 25.3859 47.9956 26.7489 49.4996C27.6889 50.5336 29.3809 50.8626 30.6499 51.0506C32.2009 51.2856 33.6579 51.3326 35.0679 51.3326Z" fill="white"/>
</svg>
