<svg width="71" height="70" viewBox="0 0 71 70" fill="none" xmlns="http://www.w3.org/2000/svg">
<rect x="0.25" width="70" height="70" rx="35" fill="#8FCA6B"/>
<path d="M35.25 20.6415C30.221 20.6415 26.179 24.5895 26.179 30.0415C26.179 34.2715 29.281 39.1595 32.242 42.6375L32.712 45.3165L32.947 49.3585H37.553L37.788 45.3165L38.258 42.6375C41.219 39.1595 44.321 34.2715 44.321 30.0415C44.321 24.5895 40.279 20.6415 35.25 20.6415ZM35.25 21.5815C36.613 22.9915 37.271 26.6575 37.271 30.0415C37.271 33.5665 36.472 38.5015 35.767 41.6975H34.733C34.028 38.5015 33.229 33.5665 33.229 30.0415C33.229 26.6575 33.887 22.9915 35.25 21.5815ZM27.307 30.0415C27.307 26.1405 29.469 22.9445 32.947 21.8165C31.114 23.5085 29.892 25.9525 29.892 30.0415C29.892 34.1775 31.678 38.1255 33.37 41.6975H32.571C30.315 38.5485 27.307 34.0835 27.307 30.0415ZM37.929 41.6975H37.13C38.822 38.1255 40.608 34.1775 40.608 30.0415C40.608 25.9525 39.386 23.5085 37.553 21.8165C41.031 22.9445 43.193 26.1405 43.193 30.0415C43.193 34.0835 40.185 38.5485 37.929 41.6975ZM36.848 45.3165H33.652L33.182 42.6375H37.318L36.848 45.3165Z" fill="white"/>
</svg>
